<?xml version="1.0" encoding="UTF-8"?>
<svg version="1.1" xmlns="http://www.w3.org/2000/svg" width="512" height="512">
<path d="M0 0 C1.04994141 -0.02900391 1.04994141 -0.02900391 2.12109375 -0.05859375 C9.05861355 1.35111027 13.9282328 6.37112325 18.72406006 11.21810913 C19.40987758 11.89924668 20.0956951 12.58038423 20.80229497 13.28216231 C23.08858329 15.55652594 25.36404709 17.84141222 27.63964844 20.12646484 C29.28049191 21.76324156 30.92197255 23.39937973 32.56404114 25.03492737 C37.01494072 29.47216124 41.45631137 33.91881946 45.8956213 38.36764479 C50.54353775 43.02316031 55.19877362 47.67134751 59.85284424 52.32070923 C68.1665473 60.62800728 76.47206753 68.94344419 84.7749311 77.2615741 C92.29967148 84.79972141 99.83224887 92.32996235 107.37060547 99.85449219 C116.13172157 108.59954621 124.88776695 117.34962677 133.63642335 126.10714686 C138.26503289 130.7404339 142.89564655 135.37166907 147.53154755 139.99766159 C151.88856429 144.34601552 156.23818264 148.70163679 160.58218956 153.06298637 C162.17797568 154.66274069 163.77632294 156.25994489 165.37739754 157.85440636 C167.56156701 160.0303841 169.73629515 162.21538256 171.90887451 164.40292358 C172.54514951 165.03250642 173.18142452 165.66208926 173.83698058 166.31075037 C178.32284419 170.85676995 181.2616613 174.77292868 182 181.3125 C181.48281934 191.44418414 173.66496137 197.88626676 166.91894531 204.53515625 C165.82391336 205.62905841 164.72976441 206.72384509 163.63642883 207.81944275 C160.68077107 210.77624344 157.71298504 213.72058818 154.74279499 216.66278076 C151.6352914 219.74520052 148.5391869 222.8390277 145.4418335 225.93164062 C139.58153324 231.77953161 133.71111577 237.61715514 127.83695579 243.45112038 C121.14709058 250.09620411 114.46864277 256.7527126 107.79110956 263.41018486 C94.06086732 277.0986692 80.31641774 290.77280658 66.5625 304.4375 C71.09344295 309.87561973 75.90459944 314.90035176 80.93530273 319.8762207 C81.75398834 320.69023346 82.57267395 321.50424622 83.41616821 322.34292603 C85.18458271 324.10088309 86.95408922 325.85774219 88.72457695 327.61361122 C91.53190456 330.39880978 94.33531113 333.18791689 97.13722229 335.9785614 C105.10121319 343.90929125 113.06937347 351.83579786 121.0480957 359.75170898 C125.46440026 364.13333147 129.8751961 368.52042326 134.28010136 372.91350621 C136.60401044 375.23069164 138.93146727 377.54412298 141.26412773 379.85250282 C143.86986886 382.43158947 146.46601169 385.01999864 149.06030273 387.6105957 C149.82052231 388.3584584 150.58074188 389.10632111 151.36399841 389.87684631 C165.04451068 403.6085316 175.75590773 422.70959751 176.5625 442.4375 C176.63984375 444.17580078 176.63984375 444.17580078 176.71875 445.94921875 C177.15384551 460.60345202 175.59968848 479.29336311 165.25 490.5625 C159.87480378 495.24112651 153.949568 497.08259759 146.85546875 496.77734375 C139.34448813 495.66413197 134.67677482 492.13380539 129.97265625 486.33984375 C128.7872509 484.74069581 127.66668226 483.09377339 126.5625 481.4375 C126.05460937 481.91960937 125.54671875 482.40171875 125.0234375 482.8984375 C119.20897667 488.23380418 114.8200701 490.94857846 106.63671875 490.68359375 C99.68931885 489.85932597 94.23741111 486.57244226 89.5625 481.4375 C87.75 478.3125 87.75 478.3125 86.5625 475.4375 C86.170625 474.65375 85.77875 473.87 85.375 473.0625 C85.106875 472.52625 84.83875 471.99 84.5625 471.4375 C83.881875 472.05625 83.20125 472.675 82.5 473.3125 C76.83851227 477.40804431 71.64093292 477.81296671 64.9140625 476.8984375 C57.82142002 475.50818532 53.62921864 471.16025354 49.5625 465.4375 C47.54759102 461.33647094 47.31099192 457.94256983 47.2890625 453.3984375 C47.27224374 452.00853346 47.25446638 450.61864076 47.23583984 449.22875977 C47.22529572 448.14656662 47.22529572 448.14656662 47.21453857 447.04251099 C46.8213673 414.61564358 38.30273788 384.75343726 14.5625 361.4375 C13.5725 360.7775 12.5825 360.1175 11.5625 359.4375 C10.95989035 360.04287503 10.35728069 360.64825006 9.73641014 361.2719698 C-4.9279315 376.00256875 -19.60057428 390.72485368 -34.2824955 405.43793201 C-41.38236508 412.55326948 -48.47939962 419.67139213 -55.56982422 426.79614258 C-61.74994862 433.00617162 -67.93533101 439.21090658 -74.12708032 445.40934581 C-77.40527544 448.69145134 -80.68077981 451.97614434 -83.95000076 455.26719093 C-87.02801216 458.36558414 -90.11301244 461.45684273 -93.20348358 464.54280663 C-94.33561928 465.67576675 -95.46519195 466.81129484 -96.59196854 467.94958496 C-98.13318619 469.50577299 -99.68344052 471.05237729 -101.23623657 472.59700012 C-102.10087839 473.46440732 -102.96552021 474.33181452 -103.8563633 475.22550678 C-107.78013609 478.58811784 -111.69319487 480.86950332 -116.9375 480.8125 C-117.6490625 480.82023437 -118.360625 480.82796875 -119.09375 480.8359375 C-125.78954894 479.69765168 -129.99199358 475.31183312 -134.5614624 470.69448853 C-135.25529817 470.00533273 -135.94913393 469.31617694 -136.66399503 468.60613763 C-138.98337459 466.2987089 -141.29190124 463.98072337 -143.60058594 461.66259766 C-145.26260802 460.00464117 -146.92526753 458.34732347 -148.58851624 456.69059753 C-153.10139604 452.19139727 -157.60473102 447.68275518 -162.10601711 443.1719594 C-166.33846174 438.93269229 -170.57691589 434.69944417 -174.81497064 430.46578746 C-183.71868094 421.57062719 -192.61318068 412.66630276 -201.50454894 403.75880806 C-209.13308827 396.1168615 -216.76946512 388.48282087 -224.41162109 380.85449219 C-233.28917865 371.99298969 -242.16184861 363.12664021 -251.0267756 354.25250089 C-255.71849078 349.55604256 -260.41228498 344.86170139 -265.1113205 340.17256546 C-269.52741217 335.76512808 -273.93612261 331.3504389 -278.33920097 326.93000221 C-279.95797981 325.3072506 -281.57932818 323.68705765 -283.20339394 322.06959724 C-285.41642091 319.864744 -287.62003721 317.6508973 -289.82147217 315.43447876 C-290.79294996 314.47303922 -290.79294996 314.47303922 -291.78405356 313.49217665 C-296.10576332 309.11306253 -298.69783809 305.41476996 -298.8125 299.0625 C-298.84085937 298.35351562 -298.86921875 297.64453125 -298.8984375 296.9140625 C-297.24364817 288.02307576 -289.37344613 281.97011486 -283.24316406 275.90258789 C-282.08923462 274.74950553 -280.93596708 273.59576045 -279.78330994 272.44140625 C-276.66429376 269.32153186 -273.53613675 266.21097251 -270.40622044 263.10203862 C-267.13235596 259.84696998 -263.86702539 256.58336311 -260.60076904 253.32066345 C-254.41973237 247.14893869 -248.23109049 240.9848991 -242.03966022 234.82360309 C-234.98902954 227.80654295 -227.9469491 220.78092868 -220.90556383 213.75459301 C-206.42568389 199.30604277 -191.93513278 184.8682356 -177.4375 170.4375 C-178.36981639 169.32710616 -179.30545045 168.2194975 -180.24243164 167.11303711 C-181.02342979 166.18738197 -181.02342979 166.18738197 -181.82020569 165.24302673 C-192.20829129 153.64590051 -206.91506277 146.07980574 -221.4375 141.125 C-222.44925293 140.77924927 -222.44925293 140.77924927 -223.48144531 140.42651367 C-237.19692609 136.04509014 -250.31205084 134.99056002 -264.55883789 135.00170898 C-274.03063173 134.98577929 -281.15392623 134.90184369 -288.6796875 128.54296875 C-293.61630178 122.74421849 -295.77138668 118.12628201 -295.25 110.375 C-294.71937156 106.21209356 -293.60152478 103.07306163 -291.4375 99.4375 C-291.045625 98.65375 -290.65375 97.87 -290.25 97.0625 C-289.981875 96.52625 -289.71375 95.99 -289.4375 95.4375 C-290.4275 95.416875 -291.4175 95.39625 -292.4375 95.375 C-297.70662458 94.5947848 -301.04874168 91.36287297 -304.4375 87.4375 C-308.12115401 81.76240278 -309.4035642 76.12838908 -308.4375 69.4375 C-307.03104909 63.1956476 -303.82691122 58.98316858 -299.4375 54.4375 C-300.46875 53.921875 -301.5 53.40625 -302.5625 52.875 C-307.73835334 49.90387121 -311.24411943 45.93275029 -313.8125 40.5625 C-315.24190634 33.41546829 -314.99488997 26.9261793 -311.4375 20.4375 C-306.06918401 14.05355666 -299.86128366 10.91167924 -292 8.75 C-291.27490234 8.53794922 -290.54980469 8.32589844 -289.80273438 8.10742188 C-268.25668947 1.97076758 -246.03650605 5.70002848 -226.4765625 15.99609375 C-211.46229474 24.96593567 -199.35391106 39.38665581 -187.109375 51.66796875 C-185.26586519 53.51334729 -183.42213176 55.35850247 -181.57818604 57.20344543 C-177.25227584 61.53243788 -172.92891628 65.86396801 -168.60651612 70.19646484 C-163.67726988 75.13696989 -158.74511246 80.07456446 -153.81273413 85.01194227 C-143.68446231 95.15060796 -133.5597679 105.29284027 -123.4375 115.4375 C-117.26118509 110.33652666 -111.64314694 104.75841949 -106.00756836 99.07348633 C-104.97219089 98.0329067 -103.93656485 96.99257435 -102.90071106 95.95246887 C-100.68246252 93.72433235 -98.46569528 91.49473638 -96.25001335 89.26404762 C-92.74393695 85.73478541 -89.23287713 82.21050938 -85.72084045 78.68717957 C-75.73882269 68.67182538 -65.76106052 58.65225836 -55.79370117 48.62231445 C-50.27964884 43.07372353 -44.76024099 37.53051903 -39.23483187 31.99323672 C-35.74397132 28.49429083 -32.25977574 24.98888337 -28.78035915 21.47855914 C-26.61392573 19.29609641 -24.44120179 17.11998227 -22.26664543 14.94561577 C-21.2618837 13.93843689 -20.25969094 12.92868746 -19.26031876 11.91616058 C-17.89257925 10.53117631 -16.51455493 9.15637159 -15.13609314 7.78205872 C-14.36903518 7.01093656 -13.60197721 6.2398144 -12.81167507 5.4453249 C-9.00153307 2.22311181 -5.05598069 0.00927703 0 0 Z " fill="#E7C042" transform="translate(322.4375,7.5625)"/>
<path d="M0 0 C5.16730199 4.32340475 9.99871625 8.85833379 14.75120544 13.63095093 C15.50039295 14.37928401 16.24958045 15.12761708 17.02147061 15.89862692 C19.51726254 18.39277906 22.00947669 20.89047494 24.50170898 23.38818359 C26.29560728 25.18236411 28.08972609 26.97632416 29.88404846 28.77008057 C33.7394439 32.6252487 37.59330717 36.48193815 41.44576836 40.3400383 C47.0156952 45.91811268 52.58840076 51.49340425 58.16177548 57.06803341 C67.20543096 66.1138743 76.24685376 75.16194334 85.28686523 84.21142578 C94.06531182 92.9990597 102.84481427 101.78563652 111.62573242 110.57080078 C112.16752655 111.11285764 112.70932068 111.65491449 113.26753282 112.21339731 C115.98572211 114.9328917 118.70393211 117.65236539 121.4221524 120.37182879 C143.95131217 142.91134527 166.47680793 165.45452009 189 188 C185.6134493 192.01414421 182.19306688 195.93229372 178.48449707 199.65594482 C177.21038719 200.93861992 177.21038719 200.93861992 175.91053772 202.24720764 C174.99711105 203.16175217 174.08368439 204.07629669 173.14257812 205.01855469 C172.15617784 206.00959266 171.1699721 207.0008243 170.1839447 207.99223328 C167.52326952 210.66593287 164.85935016 213.33637576 162.19438744 216.0058012 C160.52714023 217.67599203 158.86047633 219.34676283 157.19398499 221.01770782 C151.97225068 226.2530835 146.74854261 231.48647769 141.52192068 236.71697402 C135.50102676 242.74235699 129.48674543 248.77423956 123.47807932 254.81181598 C118.8216349 259.48988201 114.15943665 264.16216239 109.49283743 268.83009839 C106.71018177 271.61380064 103.92999532 274.39986538 101.15577698 277.19197845 C98.54890243 279.81534455 95.93494524 282.43144108 93.31543159 285.04218483 C91.90174173 286.45473918 90.49547467 287.87471016 89.08946228 289.29490662 C88.24005569 290.13874405 87.39064911 290.98258148 86.51550293 291.85198975 C85.78401787 292.58494137 85.05253281 293.31789299 84.29888153 294.07305527 C80.46940503 297.2829595 76.55636564 299.4299605 71.5 299.375 C70.7884375 299.38273437 70.076875 299.39046875 69.34375 299.3984375 C62.64795106 298.26015168 58.44550642 293.87433312 53.8760376 289.25698853 C53.18220183 288.56783273 52.48836607 287.87867694 51.77350497 287.16863763 C49.45412541 284.8612089 47.14559876 282.54322337 44.83691406 280.22509766 C43.17489198 278.56714117 41.51223247 276.90982347 39.84898376 275.25309753 C35.33610396 270.75389727 30.83276898 266.24525518 26.33148289 261.7344594 C22.09903826 257.49519229 17.86058411 253.26194417 13.62252936 249.02828746 C4.71881906 240.13312719 -4.17568068 231.22880276 -13.06704894 222.32130806 C-20.69558827 214.6793615 -28.33196512 207.04532087 -35.97412109 199.41699219 C-44.85167865 190.55548969 -53.72434861 181.68914021 -62.5892756 172.81500089 C-67.28099078 168.11854256 -71.97478498 163.42420139 -76.6738205 158.73506546 C-81.08991217 154.32762808 -85.49862261 149.9129389 -89.90170097 145.49250221 C-91.52047981 143.8697506 -93.14182818 142.24955765 -94.76589394 140.63209724 C-96.97892091 138.427244 -99.18253721 136.2133973 -101.38397217 133.99697876 C-102.03162403 133.35601906 -102.67927589 132.71505937 -103.34655356 132.05467665 C-107.66826332 127.67556253 -110.26033809 123.97726996 -110.375 117.625 C-110.40335938 116.91601562 -110.43171875 116.20703125 -110.4609375 115.4765625 C-108.88283912 106.99762716 -101.65963049 101.25292574 -95.81542969 95.47485352 C-94.76987316 94.43014425 -93.72497886 93.38477188 -92.68069458 92.33879089 C-89.85711937 89.51435817 -87.02441872 86.69924368 -84.18994045 83.88575864 C-81.22436995 80.93899577 -78.26734442 77.98368307 -75.30938721 75.02928162 C-69.71271369 69.44191657 -64.10843983 63.86224028 -58.50136876 58.28531164 C-52.11577505 51.93329925 -45.73874081 45.57272309 -39.36239767 39.21142685 C-26.25107429 26.13142535 -13.12908436 13.06217258 0 0 Z " fill="#8BDC79" transform="translate(134,189)"/>
<path d="M0 0 C1.04994141 -0.02900391 1.04994141 -0.02900391 2.12109375 -0.05859375 C9.05861355 1.35111027 13.9282328 6.37112325 18.72406006 11.21810913 C19.40987758 11.89924668 20.0956951 12.58038423 20.80229497 13.28216231 C23.08858329 15.55652594 25.36404709 17.84141222 27.63964844 20.12646484 C29.28049191 21.76324156 30.92197255 23.39937973 32.56404114 25.03492737 C37.01494072 29.47216124 41.45631137 33.91881946 45.8956213 38.36764479 C50.54353775 43.02316031 55.19877362 47.67134751 59.85284424 52.32070923 C68.1665473 60.62800728 76.47206753 68.94344419 84.7749311 77.2615741 C92.29967148 84.79972141 99.83224887 92.32996235 107.37060547 99.85449219 C116.13172157 108.59954621 124.88776695 117.34962677 133.63642335 126.10714686 C138.26503289 130.7404339 142.89564655 135.37166907 147.53154755 139.99766159 C151.88856429 144.34601552 156.23818264 148.70163679 160.58218956 153.06298637 C162.17797568 154.66274069 163.77632294 156.25994489 165.37739754 157.85440636 C167.56156701 160.0303841 169.73629515 162.21538256 171.90887451 164.40292358 C172.54514951 165.03250642 173.18142452 165.66208926 173.83698058 166.31075037 C178.32284419 170.85676995 181.2616613 174.77292868 182 181.3125 C181.49715334 191.29126999 173.94553208 197.60808682 167.28613281 204.16796875 C166.23050918 205.22246249 165.17576872 206.27784098 164.12184143 207.33403015 C161.27361548 210.18339865 158.41327095 213.02030826 155.55051136 215.85506439 C152.55511371 218.82537168 149.57112123 221.80709286 146.58587646 224.78759766 C140.9380716 230.42299516 135.28015273 236.04812271 129.61848617 241.66959 C123.17045175 248.07283697 116.73383981 254.48751407 110.29814005 260.90315437 C97.06555485 274.09398598 83.81876469 287.2704677 70.5625 300.4375 C69.80349081 299.43471118 69.80349081 299.43471118 69.0291481 298.41166401 C65.92397823 294.66760158 62.54068736 291.28118651 59.09613037 287.85087585 C58.34133904 287.0952301 57.5865477 286.33958434 56.80888391 285.56104022 C54.28088385 283.03139397 51.74932793 280.5053368 49.21777344 277.97924805 C47.40418381 276.1659405 45.59081438 274.35241271 43.77764893 272.53868103 C39.87442727 268.6352317 35.96967953 264.73331914 32.06352997 260.83279991 C26.41593161 255.1933367 20.77110428 249.55110651 15.12694433 243.90820227 C5.96907215 234.75251743 -3.19102988 225.5990669 -12.35253906 216.44702148 C-21.25084755 207.5578953 -30.1481027 198.66771699 -39.04394531 189.77612305 C-39.86677975 188.95368269 -39.86677975 188.95368269 -40.70623711 188.11462738 C-43.45824089 185.36392866 -46.210224 182.61320926 -48.96219683 179.86247957 C-71.78409361 157.05094553 -94.60961113 134.24303771 -117.4375 111.4375 C-114.0509493 107.42335579 -110.63056688 103.50520628 -106.92199707 99.78155518 C-106.07259048 98.92643845 -105.2231839 98.07132172 -104.34803772 97.19029236 C-102.97789772 95.81847557 -102.97789772 95.81847557 -101.58007812 94.41894531 C-100.59367784 93.42790734 -99.6074721 92.4366757 -98.6214447 91.44526672 C-95.96076952 88.77156713 -93.29685016 86.10112424 -90.63188744 83.4316988 C-88.96464023 81.76150797 -87.29797633 80.09073717 -85.63148499 78.41979218 C-80.40975068 73.1844165 -75.18604261 67.95102231 -69.95942068 62.72052598 C-63.93852676 56.69514301 -57.92424543 50.66326044 -51.91557932 44.62568402 C-47.2591349 39.94761799 -42.59693665 35.27533761 -37.93033743 30.60740161 C-35.14768177 27.82369936 -32.36749532 25.03763462 -29.59327698 22.24552155 C-26.98640243 19.62215545 -24.37244524 17.00605892 -21.75293159 14.39531517 C-20.33924173 12.98276082 -18.93297467 11.56278984 -17.52696228 10.14259338 C-16.67755569 9.29875595 -15.82814911 8.45491852 -14.95300293 7.58551025 C-14.22151787 6.85255863 -13.49003281 6.11960701 -12.73638153 5.36444473 C-8.94806564 2.18904171 -5.0048179 0.00918315 0 0 Z " fill="#8BDC79" transform="translate(322.4375,7.5625)"/>
<path d="M0 0 C11.00058945 9.41230221 21.10605643 19.88930533 31.36328125 30.08984375 C32.2692272 30.99046602 33.17517315 31.89108829 34.10857201 32.81900215 C37.90864841 36.59797078 41.70773704 40.37791903 45.50295734 44.1617651 C50.91209388 49.55456548 56.32966137 54.93858149 61.75881988 60.31122679 C66.06023506 64.56939198 70.34798311 68.84106173 74.63103294 73.11770821 C76.45017023 74.93011239 78.27357556 76.73824291 80.1012516 78.54203606 C82.64088381 81.05030187 85.16455645 83.57360787 87.68481445 86.10131836 C88.44566849 86.84576706 89.20652252 87.59021576 89.99043274 88.35722351 C91.00992004 89.38918854 91.00992004 89.38918854 92.05000305 90.44200134 C92.94611282 91.33314589 92.94611282 91.33314589 93.86032581 92.24229336 C95 94 95 94 94.81290054 96.07130146 C93.55799076 99.04871694 91.48903182 100.86838119 89.20483398 103.13574219 C88.70725586 103.63375839 88.20967773 104.1317746 87.69702148 104.6448822 C86.05372425 106.28609261 84.40006365 107.91642663 82.74609375 109.546875 C81.60343749 110.68393494 80.46144262 111.82165988 79.32008362 112.96002197 C76.31652494 115.95213476 73.30406586 118.93512859 70.28967285 121.9163208 C67.21438808 124.96089934 64.14759455 128.0140045 61.08007812 131.06640625 C55.06166955 137.05265518 49.03383283 143.02929845 43 149 C41.89021963 148.05156712 40.78084182 147.1026632 39.67163086 146.15356445 C38.74488808 145.36101006 38.74488808 145.36101006 37.79942322 144.55244446 C36.26967508 143.23266099 34.75958103 141.89015145 33.25390625 140.54296875 C22.65684532 131.26861789 11.20122094 124.8556762 -2.0625 120.125 C-2.82820313 119.85083252 -3.59390625 119.57666504 -4.3828125 119.29418945 C-18.29305053 114.61922319 -31.61632376 113.55285794 -46.12133789 113.56420898 C-55.59313173 113.54827929 -62.71642623 113.46434369 -70.2421875 107.10546875 C-75.17880178 101.30671849 -77.33388668 96.68878201 -76.8125 88.9375 C-76.28187156 84.77459356 -75.16402478 81.63556163 -73 78 C-72.608125 77.21625 -72.21625 76.4325 -71.8125 75.625 C-71.544375 75.08875 -71.27625 74.5525 -71 74 C-71.99 73.979375 -72.98 73.95875 -74 73.9375 C-79.26912458 73.1572848 -82.61124168 69.92537297 -86 66 C-89.68365401 60.32490278 -90.9660642 54.69088908 -90 48 C-88.59354909 41.7581476 -85.38941122 37.54566858 -81 33 C-82.03125 32.484375 -83.0625 31.96875 -84.125 31.4375 C-89.30085334 28.46637121 -92.80661943 24.49525029 -95.375 19.125 C-96.80440634 11.97796829 -96.55738997 5.4886793 -93 -1 C-87.63168401 -7.38394334 -81.42378366 -10.52582076 -73.5625 -12.6875 C-72.83740234 -12.89955078 -72.11230469 -13.11160156 -71.36523438 -13.33007812 C-47.09935452 -20.24138443 -20.18087212 -15.02094453 0 0 Z " fill="#D3E5E6" transform="translate(104,29)"/>
<path d="M0 0 C7.87593783 6.75080386 7.87593783 6.75080386 11.05957031 9.91912842 C11.78269409 10.63654205 12.50581787 11.35395569 13.25085449 12.09310913 C14.01885376 12.85999054 14.78685303 13.62687195 15.578125 14.41699219 C16.40671021 15.24061249 17.23529541 16.06423279 18.08898926 16.91281128 C20.81210229 19.62139407 23.53137426 22.33378873 26.25 25.046875 C27.67024183 26.46281588 29.09048395 27.87875647 30.51076126 29.29466176 C34.46465971 33.23678501 38.41644746 37.18101199 42.36619186 41.12729716 C47.44916565 46.20579255 52.53860906 51.27768366 57.63380814 56.34391284 C61.59096756 60.27936302 65.54225318 64.22064937 69.48923874 68.16630292 C71.8382388 70.51426195 74.1902599 72.85904499 76.54699707 75.19924164 C79.1791407 77.81422238 81.80153684 80.43862636 84.421875 83.06542969 C85.5738739 84.20360641 85.5738739 84.20360641 86.74914551 85.36477661 C100.43224027 99.15325201 111.19108377 118.21525727 112 138 C112.0515625 139.15886719 112.103125 140.31773437 112.15625 141.51171875 C112.59134551 156.16595202 111.03718848 174.85586311 100.6875 186.125 C95.31230378 190.80362651 89.387068 192.64509759 82.29296875 192.33984375 C74.78198813 191.22663197 70.11427482 187.69630539 65.41015625 181.90234375 C64.2247509 180.30319581 63.10418226 178.65627339 62 177 C61.23816406 177.72316406 61.23816406 177.72316406 60.4609375 178.4609375 C54.64647667 183.79630418 50.2575701 186.51107846 42.07421875 186.24609375 C35.12681885 185.42182597 29.67491111 182.13494226 25 177 C23.1875 173.875 23.1875 173.875 22 171 C21.608125 170.21625 21.21625 169.4325 20.8125 168.625 C20.544375 168.08875 20.27625 167.5525 20 167 C18.9790625 167.928125 18.9790625 167.928125 17.9375 168.875 C12.27601227 172.97054431 7.07843292 173.37546671 0.3515625 172.4609375 C-6.74107998 171.07068532 -10.93328136 166.72275354 -15 161 C-17.01490898 156.89897094 -17.25150808 153.50506983 -17.2734375 148.9609375 C-17.29025626 147.57103346 -17.30803362 146.18114076 -17.32666016 144.79125977 C-17.33368958 144.06979767 -17.34071899 143.34833557 -17.34796143 142.60501099 C-17.7422833 110.08324743 -26.27097553 82.81586776 -48.59301758 58.60888672 C-50.15824381 56.81904794 -51.57338016 54.90215979 -53 53 C-35.51 35.51 -18.02 18.02 0 0 Z " fill="#D3E5E6" transform="translate(387,312)"/>
<path d="M0 0 C3.73596604 1.56036379 6.11211838 3.86063009 8.96075439 6.70678711 C9.44603127 7.18894401 9.93130815 7.6711009 10.43129039 8.16786861 C12.05435965 9.78296738 13.6701945 11.40511267 15.28613281 13.02734375 C16.44885525 14.18735599 17.61200271 15.34694234 18.77554321 16.50613403 C21.93279577 19.65426592 25.08368573 22.80869498 28.23320866 25.96455765 C31.52672892 29.26313712 34.82512107 32.55683905 38.1227417 35.85131836 C43.65769816 41.38263598 49.18842323 46.9181583 54.71679688 52.45605469 C61.11602266 58.8661756 67.52243629 65.26904505 73.93261075 71.66821575 C79.43101823 77.15756086 84.92553556 82.65077693 90.41679263 88.14727497 C93.69884023 91.43244668 96.98223857 94.71623769 100.26914215 97.99655151 C103.3565548 101.0782062 106.43907082 104.16467506 109.51780319 107.25500107 C110.65129811 108.39115044 111.78651682 109.52558291 112.92353439 110.65820694 C114.46940344 112.19865025 116.00904162 113.74505639 117.54718018 115.29321289 C118.41215748 116.15894424 119.27713478 117.0246756 120.16832352 117.91664124 C122 120 122 120 122 122 C92.58885408 127.77392653 65.13460508 123.50289141 40 107 C21.40648167 93.44021915 5.87937838 73.74336561 0.375 51 C0.13523438 50.030625 -0.10453125 49.06125 -0.3515625 48.0625 C-2.00528889 40.25212958 -2.18315207 32.70670467 -2.1875 24.75 C-2.19974609 23.58597656 -2.21199219 22.42195313 -2.22460938 21.22265625 C-2.23686496 13.92649819 -1.5960791 7.1222204 0 0 Z " fill="#6DB55B" transform="translate(167,223)"/>
<path d="M0 0 C1.80754761 0.00845947 1.80754761 0.00845947 3.65161133 0.01708984 C30.58150189 0.38377929 54.14470185 11.11290545 73.625 29.5625 C93.81177815 50.7105533 101.83865901 76.20121248 101.30859375 105 C100.65647482 120.59352518 100.65647482 120.59352518 96.9375 124.3125 C57.3375 84.7125 17.7375 45.1125 -23.0625 4.3125 C-17.4895657 -1.2604343 -7.29133135 -0.03539236 0 0 Z " fill="#6DB55B" transform="translate(262.0625,148.6875)"/>
<path d="M0 0 C0.69996094 -0.01933594 1.39992188 -0.03867188 2.12109375 -0.05859375 C10.35319492 1.61416921 16.00371081 8.41122219 21.6875 14.09375 C22.6436729 15.0428121 23.60013951 15.99157837 24.55688477 16.94006348 C26.54881295 18.91861447 28.53478505 20.9029228 30.51708984 22.89111328 C33.06036301 25.44031936 35.62153545 27.97068487 38.18780518 30.49671173 C40.16264948 32.44576072 42.12596458 34.40610844 44.08612061 36.36991882 C45.48309953 37.76437998 46.89115563 39.14771523 48.29931641 40.53088379 C49.13769043 41.37856323 49.97606445 42.22624268 50.83984375 43.09960938 C51.58484131 43.84255249 52.32983887 44.58549561 53.09741211 45.35095215 C54.5625 47.4375 54.5625 47.4375 54.40234375 49.5880127 C50.01354951 59.25292862 36.14849885 65.05381434 26.8125 68.6875 C7.01653083 75.98722015 -14.43650598 75.59486851 -33.59375 66.80078125 C-42.01817971 62.70197218 -49.26761791 57.42877134 -56.4375 51.4375 C-54.939235 47.94747517 -52.93439455 45.67592827 -50.26660156 42.99194336 C-48.97450775 41.68555153 -48.97450775 41.68555153 -47.65631104 40.35276794 C-46.72300964 39.42037796 -45.78970825 38.48798798 -44.828125 37.52734375 C-43.85864663 36.55397553 -42.8893914 35.58038502 -41.92034912 34.60658264 C-39.8894218 32.56820192 -37.85467332 30.53372913 -35.81738281 28.50170898 C-33.2153437 25.90545715 -30.62483183 23.29803523 -28.03732681 20.68730831 C-26.03848061 18.67368212 -24.03269854 16.66707691 -22.02489471 14.66238594 C-20.60367947 13.24041187 -19.18901202 11.81190315 -17.7744751 10.38328552 C-16.90047058 9.5155098 -16.02646606 8.64773407 -15.12597656 7.75366211 C-13.98252777 6.60926918 -13.98252777 6.60926918 -12.815979 5.4417572 C-9.00084496 2.22688338 -5.05571276 0.00927654 0 0 Z " fill="#6DB55B" transform="translate(322.4375,7.5625)"/>
<path d="M0 0 C2.76954853 1.14701861 4.34752396 2.72556565 6.47132874 4.84257507 C7.32223587 5.68402573 8.17314301 6.52547638 9.04983521 7.39242554 C9.96035141 8.30901443 10.87086761 9.22560333 11.80897522 10.16996765 C12.75970404 11.11867437 13.71087772 12.06693548 14.66247559 13.01477051 C16.65527351 15.00314721 18.64255001 16.9968433 20.62611389 18.99443054 C23.16015357 21.54551533 25.70736046 24.08295621 28.25891209 26.61651134 C30.22641984 28.57313598 32.18667377 30.53690304 34.14486504 32.50284767 C35.53395104 33.89489021 36.92904963 35.28092461 38.32424927 36.6668396 C39.17200424 37.52405106 40.01975922 38.38126251 40.89320374 39.26445007 C41.63836746 40.01200058 42.38353119 40.75955109 43.15127563 41.52975464 C46.81787758 45.90672638 48.74205011 50.03636207 48.45039368 55.83207703 C47.00410855 64.71825657 39.99194471 70.52676087 33.88319397 76.5019989 C32.87912412 77.49859464 31.87594393 78.49608744 30.87361145 79.49443054 C28.25206274 82.10081499 25.61872316 84.69495355 22.98262024 87.28660583 C20.28720938 89.94086383 17.60329529 92.6066932 14.91835022 95.27153015 C9.66251826 100.48465409 4.39415795 105.68487671 -0.88243103 110.8769989 C-11.11007849 106.15797537 -16.90625757 91.84546332 -20.66954041 81.76957703 C-27.57718485 61.86348597 -26.57099144 40.43960957 -17.69102478 21.24028015 C-6.05632922 -0.39573038 -6.05632922 -0.39573038 0 0 Z " fill="#6DB55B" transform="translate(455.88243103027344,135.1230010986328)"/>
<path d="M0 0 C7.19998865 2.39999622 12.39853424 13.32761517 15.8125 19.75 C19.40602051 27.23719586 21.27041189 34.90999112 23 43 C23.19207031 43.67546875 23.38414063 44.3509375 23.58203125 45.046875 C27.46732261 63.20244212 20.1409308 84.33305908 10.69140625 99.53125 C7.70839476 103.88520672 4.38870946 107.95763085 1 112 C-2.49741457 110.49971277 -4.77222695 108.48627169 -7.46142578 105.81323242 C-8.33558136 104.94860886 -9.20973694 104.08398529 -10.11038208 103.19316101 C-11.05568858 102.24759308 -12.00065726 101.30168732 -12.9453125 100.35546875 C-13.92107606 99.38359446 -14.89706214 98.41194354 -15.8732605 97.44050598 C-17.91583679 95.40538196 -19.95450652 93.36643796 -21.99072266 91.32495117 C-24.5960368 88.71384202 -27.21253945 86.11427641 -29.83232307 83.51769543 C-31.85018588 81.51458855 -33.86105345 79.50457158 -35.8699913 77.49251747 C-36.83167868 76.53134231 -37.7957219 75.57251812 -38.76218033 74.61614037 C-40.11441984 73.27628357 -41.4561227 71.92581818 -42.79736328 70.57495117 C-43.56251251 69.81043137 -44.32766174 69.04591156 -45.11599731 68.25822449 C-48.07766165 64.70828107 -49.29209024 61.21820068 -49.375 56.625 C-49.40335938 55.91601562 -49.43171875 55.20703125 -49.4609375 54.4765625 C-47.87911727 45.97763006 -40.6368636 40.24765361 -34.765625 34.47265625 C-33.76177413 33.47440974 -32.75859031 32.47549204 -31.75604248 31.47593689 C-29.13231363 28.8635907 -26.49969868 26.26038546 -23.86505127 23.65905762 C-21.17147518 20.99632517 -18.48650999 18.32494012 -15.80078125 15.65429688 C-10.5421866 10.42775007 -5.27416259 5.21084163 0 0 Z " fill="#6DB55B" transform="translate(73,250)"/>
<path d="M0 0 C1.10214844 0.45761719 2.20429688 0.91523438 3.33984375 1.38671875 C11.15988685 4.98610807 17.91577209 9.91577209 24 16 C23.74571058 19.86866986 21.58759325 21.79229842 18.94262695 24.44555664 C18.08115555 25.31648453 17.21968414 26.18741241 16.33210754 27.08473206 C15.38454555 28.02692255 14.43659365 28.96872105 13.48828125 29.91015625 C12.51715425 30.88330526 11.54647287 31.85689915 10.57621765 32.83091736 C8.54076352 34.87079301 6.49998684 36.90514876 4.45532227 38.93579102 C1.84370471 41.53036239 -0.75427317 44.13810788 -3.34836102 46.75019169 C-5.35130925 48.76402131 -7.36139904 50.7706005 -9.37366676 52.77511406 C-10.79894841 54.19743834 -12.21822037 55.62577665 -13.63737488 57.05421448 C-14.51460709 57.9219902 -15.39183929 58.78976593 -16.2956543 59.68383789 C-17.0609697 60.44676651 -17.8262851 61.20969513 -18.61479187 61.9957428 C-22.47670139 65.24085163 -26.39035369 67.43053963 -31.5 67.375 C-32.56734375 67.38660156 -32.56734375 67.38660156 -33.65625 67.3984375 C-39.14410798 66.46550164 -42.98611972 63.38687927 -46.81201172 59.52856445 C-48.1627327 58.17750359 -48.1627327 58.17750359 -49.54074097 56.79914856 C-50.50388661 55.820687 -51.46686496 54.84206074 -52.4296875 53.86328125 C-53.42936448 52.85800236 -54.42971083 51.85338872 -55.43069458 50.84941101 C-58.05126532 48.21743834 -60.66269729 45.57657953 -63.27227783 42.93371582 C-65.94164362 40.23354849 -68.61962411 37.54195466 -71.296875 34.84960938 C-76.53968039 29.57472202 -81.77285325 24.2904096 -87 19 C-86.06971562 17.8808919 -85.13449671 16.76588474 -84.19726562 15.65258789 C-83.67700806 15.03122452 -83.15675049 14.40986115 -82.62072754 13.76966858 C-62.96790115 -7.68920623 -25.43608111 -10.58207985 0 0 Z " fill="#6DB55B" transform="translate(237,421)"/>
<path d="M0 0 C7.60067887 3.5546032 11.70791288 8.37248761 15.03515625 16.08984375 C16.25453048 24.59710582 15.83726045 31.93774062 10.81640625 39.06640625 C6.32044827 44.17365677 0.82912772 47.67206968 -6.015625 48.42578125 C-14.46710691 48.5269966 -19.95425079 47.92171153 -26.15625 41.99609375 C-32.63586654 35.04122806 -34.51911924 29.97466917 -34.3359375 20.44921875 C-33.6590619 14.32171333 -31.47624029 9.48188679 -26.9921875 5.2109375 C-25.03454469 3.69239214 -23.09918204 2.34583606 -20.96484375 1.08984375 C-20.36027344 0.71730469 -19.75570312 0.34476562 -19.1328125 -0.0390625 C-13.34483257 -2.36468327 -5.86221722 -1.79960028 0 0 Z " fill="#6DB55B" transform="translate(161.96484375,335.91015625)"/>
<path d="M0 0 C6.47065549 3.69751742 10.85148199 8.63663277 13.15234375 15.7734375 C14.85387255 23.56390818 13.77022072 30.13231679 9.625 36.9375 C5.79889354 41.46841554 1.28980073 45.04923309 -4.375 46.9375 C-12.28389355 47.55051462 -19.92344598 48.10451642 -26.375 42.9375 C-31.87783042 37.79569027 -34.8434733 33.25104362 -35.78125 25.640625 C-36.00911706 17.24752167 -35.11834925 11.29954337 -29.375 4.9375 C-20.72131053 -2.25919073 -10.62430679 -4.91716779 0 0 Z " fill="#6DB55B" transform="translate(386.375,114.0625)"/>
<path d="M0 0 C1.90625 0.3671875 1.90625 0.3671875 4.40625 1.7421875 C8.91539426 9.63318995 4.79915401 21.07053486 3.03125 29.3671875 C2.75820221 30.68210254 2.48606187 31.99720635 2.21484375 33.3125 C1.69035883 35.84537837 1.15872269 38.37678893 0.61914062 40.90649414 C0.17552133 43.06002274 -0.2376979 45.22032698 -0.60351562 47.38842773 C-1.64691992 53.54552936 -2.99316016 56.21371803 -7.984375 60.09375 C-10.66040299 61.70927801 -12.97610881 62.28924647 -16.09375 62.3671875 C-20.64461412 47.89214983 -17.16449093 34.31536854 -13.70898438 19.98095703 C-13.17393547 17.70784845 -12.68677119 15.43520896 -12.234375 13.14453125 C-11.88632812 11.42943359 -11.88632812 11.42943359 -11.53125 9.6796875 C-11.34433594 8.72707031 -11.15742188 7.77445312 -10.96484375 6.79296875 C-8.93382436 1.13708068 -5.63205747 -0.35725738 0 0 Z " fill="#AAC7C8" transform="translate(451.09375,434.6328125)"/>
<path d="M0 0 C1.60899311 2.79824889 1.99799326 5.18954275 2.1640625 8.40234375 C0.99507304 11.77732945 -1.65332607 13.61691096 -4.5625 15.5 C-7.30526026 16.38193193 -9.72803554 17.01869972 -12.53125 17.51953125 C-13.2886145 17.66782883 -14.045979 17.8161264 -14.82629395 17.96891785 C-16.42481992 18.27749263 -18.0251174 18.57701442 -19.62695312 18.86791992 C-22.03251483 19.30702656 -24.42981426 19.77891137 -26.828125 20.25585938 C-50.31553981 24.78301607 -50.31553981 24.78301607 -59.5625 20.5 C-60 18 -60 18 -59.5625 14.5 C-57.21396884 11.19399075 -54.423605 8.361105 -51.5625 5.5 C-49.37927161 5.21509644 -47.19024946 4.97464097 -45 4.75 C-36.56354052 3.81643722 -28.34632297 2.07145731 -20.07788086 0.17675781 C-5.29345318 -3.09860674 -5.29345318 -3.09860674 0 0 Z " fill="#AAC7C8" transform="translate(75.5625,56.5)"/>
<path d="M0 0 C2.43973049 2.59193338 3.28625162 4.46567248 3.35710144 8.00816345 C2.13901682 11.30415712 0.96614906 12.62934977 -1.70539856 14.88316345 C-4.2771759 15.83555603 -4.2771759 15.83555603 -7.16633606 16.4651947 C-8.22820129 16.70318787 -9.29006653 16.94118103 -10.3841095 17.18638611 C-11.48013489 17.41632263 -12.57616028 17.64625916 -13.70539856 17.88316345 C-14.74728333 18.11438904 -15.78916809 18.34561462 -16.86262512 18.58384705 C-20.01336047 19.27402216 -23.16995939 19.9265099 -26.33039856 20.57066345 C-27.38485168 20.79560486 -28.43930481 21.02054626 -29.52571106 21.25230408 C-46.52436925 24.71304575 -46.52436925 24.71304575 -53.70539856 20.88316345 C-53.51356422 15.4158848 -52.83913298 11.6483325 -49.12239075 7.53526306 C-43.98593638 4.02431491 -37.40453887 3.38605626 -31.36628723 2.36436462 C-28.90495762 1.94770484 -26.45330204 1.4927019 -24.00032043 1.02964783 C-22.41674865 0.74027142 -20.8327739 0.45308985 -19.24836731 0.1683197 C-18.52618515 0.03716263 -17.80400299 -0.09399445 -17.05993652 -0.22912598 C-3.75756558 -2.46076587 -3.75756558 -2.46076587 0 0 Z " fill="#ABC7C8" transform="translate(81.70539855957031,97.11683654785156)"/>
<path d="M0 0 C2.375 1.4375 2.375 1.4375 4 4 C5.22855204 12.36563987 2.99474694 21.19088194 1.39379883 29.37841797 C0.93660925 31.75462962 0.52005065 34.13590285 0.10351562 36.51953125 C-2.45640823 50.23479103 -2.45640823 50.23479103 -8.17382812 54.20849609 C-11.45609733 55.63110529 -14.43526993 55.87492175 -18 56 C-22.65730417 46.97647317 -19.09968135 36.09783922 -17.17407227 26.69702148 C-16.68702692 24.31018162 -16.21866526 21.92018596 -15.75195312 19.52929688 C-15.4438184 17.99456837 -15.13461041 16.46005489 -14.82421875 14.92578125 C-14.68658615 14.21940018 -14.54895355 13.5130191 -14.40715027 12.78523254 C-13.39010294 7.90620906 -12.23732644 2.77443131 -8.1875 -0.4375 C-5.09366104 -1.23305859 -3.05905296 -0.89222378 0 0 Z " fill="#AAC7C8" transform="translate(412,428)"/>
<path d="M0 0 C0.99 0.33 1.98 0.66 3 1 C-20.66666667 24.66666667 -44.33333333 48.33333333 -68 72 C-68 68 -68 68 -66.3125 65.88671875 C-65.549375 65.16097656 -64.78625 64.43523437 -64 63.6875 C-63.2575 62.96949219 -62.515 62.25148437 -61.75 61.51171875 C-59.6862193 59.62675996 -57.60119399 57.80199895 -55.47900391 55.9855957 C-50.29342492 51.4517278 -45.44949105 46.59295588 -40.5859375 41.71875 C-39.60297936 40.73646754 -38.61987299 39.75433339 -37.6366272 38.77233887 C-35.58945868 36.7266342 -33.54408273 34.67915897 -31.5 32.63037109 C-28.89680696 30.02147399 -26.28913837 27.41710388 -23.68010521 24.81404877 C-21.65354471 22.79112307 -19.62939808 20.76579545 -17.60594559 18.73976135 C-16.18382172 17.31665858 -14.75970615 15.89554703 -13.33554077 14.4744873 C-8.67884257 9.80100695 -4.20788884 5.08246965 0 0 Z " fill="#DEC348" transform="translate(204,119)"/>
</svg>
